<svg viewBox="0 0 1024 1024" xmlns="http://www.w3.org/2000/svg" style="enable-background:new 0 0 1024 1024" xml:space="preserve"><path d="M938.67 512.01c0-44.59-6.82-87.6-19.54-128H682.67a212.372 212.372 0 0 1 42.67 128c.06 38.71-10.45 76.7-30.42 109.87l-182.91 316.8c235.65-.01 426.66-191.02 426.66-426.67z" fill="#000000"/><path d="M394.45 333.96A213.336 213.336 0 0 1 512 298.67h369.58A426.503 426.503 0 0 0 512 85.34a425.598 425.598 0 0 0-171.74 35.98 425.644 425.644 0 0 0-142.62 102.22l118.14 204.63a213.397 213.397 0 0 1 78.67-94.21zm117.56 604.72H512zm-97.25-236.73a213.284 213.284 0 0 1-89.54-86.81L142.48 298.6c-36.35 62.81-57.13 135.68-57.13 213.42 0 203.81 142.93 374.22 333.95 416.55h.04l118.19-204.71a213.315 213.315 0 0 1-122.77-21.91z" fill="#000000"/></svg>
